# xmcd CD database file
#
# Track frame offsets:
#	150
#	12800
#	23995
#	34507
#	45442
#	57820
#	70430
#	82960
#	95710
#	104997
#	116395
#	126145
#	137267
#	148727
#	161852
#	182850
#
# Disc length: 2590 seconds
#
# Revision: 0
# Processed by: cddbd v1.4PL0 Copyright (c) Steve Scherf et al.
# Submitted via: CDex 1.50beta10
#
DISCID=db0a1c10
DTITLE=Professor Longhair - 21 BLUES GIANTS (18)
DYEAR=1995
DGENRE=Blues
TTITLE0=SHE AIN'T GOT NO HAIR
TTITLE1=BYE BYE BABY
TTITLE2=PROFESSOR LONGHAIR'S BOOGIE
TTITLE3=MARDI GRAS IN NEW ORLEANS
TTITLE4=EAST ST. LOUIS BABY
TTITLE5=BOYD'S BOUNCE
TTITLE6=K.C. BLUES
TTITLE7=CURLY HAIRED BABY
TTITLE8=ROCKIN' WITH FES
TTITLE9=GONE SO LONG
TTITLE10=NO BUTS, NO MAYBES
TTITLE11=LOOK WHAT YOU'RE DOIN' TO ME (OOOH-WEE BABY)
TTITLE12=BALD HEAD
TTITLE13=THERE IS SOMETHING ON YOUR MIND
TTITLE14=BIG CHIEF PART-1&2
TTITLE15=THIRD HOUSE FROM THE CORNER
EXTD=YEAR: 1995
EXTT0=
EXTT1=
EXTT2=
EXTT3=
EXTT4=
EXTT5=
EXTT6=
EXTT7=
EXTT8=
EXTT9=
EXTT10=
EXTT11=
EXTT12=
EXTT13=
EXTT14=
EXTT15=
PLAYORDER=
